# xmcd
#
# Track frame offsets:
#	150
#	36682
#	65273
#	93829
#	122441
#	149420
#	169873
#	202635
#	229590
#
# Disc length: 3262 seconds
#
# Revision: 0
# Processed by: cddbd v1.5.2PL0 Copyright (c) Steve Scherf et al.
# Submitted via: EasyCDDAExtractor 16.0.9.1
#
DISCID=720cbc09
DTITLE=Pet Shop Boys - Love Etc. (remix promo)
DYEAR=1900
DGENRE=
TTITLE0=Love Etc. (Gui Boratto Remix)
TTITLE1=Love Etc. (Pet Shop Boys Mix)
TTITLE2=Love Etc. (Pet Shop Boys Sex Mix)
TTITLE3=Love Etc. (Pet Shop Boys Dub)
TTITLE4=Love Etc. (Kurd Maverick Remix)
TTITLE5=Gin And Jag
TTITLE6=Gin And Jag (Frisky Mix)
TTITLE7=Love Etc. (Kurd Maverick Dub)
TTITLE8=Love Etc. (Frankmusik Star and Garter Dub)
EXTD=
EXTT0=
EXTT1=
EXTT2=
EXTT3=
EXTT4=
EXTT5=
EXTT6=
EXTT7=
EXTT8=
PLAYORDER=
